<svg width="128" height="128" viewBox="0 0 128 128" xmlns="http://www.w3.org/2000/svg">
  <defs>
    <linearGradient id="grad1_128" x1="0%" y1="0%" x2="100%" y2="100%">
      <stop offset="0%" style="stop-color:#0176d3;stop-opacity:1" />
      <stop offset="25%" style="stop-color:#0162b8;stop-opacity:1" />
      <stop offset="50%" style="stop-color:#0056b3;stop-opacity:1" />
      <stop offset="75%" style="stop-color:#003d82;stop-opacity:1" />
      <stop offset="100%" style="stop-color:#002951;stop-opacity:1" />
    </linearGradient>
    <linearGradient id="grad2_128" x1="0%" y1="0%" x2="100%" y2="100%">
      <stop offset="0%" style="stop-color:#ff6b35;stop-opacity:1" />
      <stop offset="30%" style="stop-color:#ff5722;stop-opacity:1" />
      <stop offset="70%" style="stop-color:#f7931e;stop-opacity:1" />
      <stop offset="100%" style="stop-color:#e65100;stop-opacity:1" />
    </linearGradient>
    <radialGradient id="glow_128" cx="50%" cy="30%" r="70%">
      <stop offset="0%" style="stop-color:#ffffff;stop-opacity:0.5" />
      <stop offset="50%" style="stop-color:#ffffff;stop-opacity:0.2" />
      <stop offset="100%" style="stop-color:#ffffff;stop-opacity:0" />
    </radialGradient>
    <radialGradient id="innerGlow" cx="50%" cy="50%" r="40%">
      <stop offset="0%" style="stop-color:#87ceeb;stop-opacity:0.3" />
      <stop offset="100%" style="stop-color:#87ceeb;stop-opacity:0" />
    </radialGradient>
    <filter id="shadow_128" x="-50%" y="-50%" width="200%" height="200%">
      <feDropShadow dx="4" dy="4" stdDeviation="6" flood-color="#000000" flood-opacity="0.3"/>
    </filter>
    <filter id="innerShadow" x="-50%" y="-50%" width="200%" height="200%">
      <feDropShadow dx="2" dy="2" stdDeviation="2" flood-color="#000000" flood-opacity="0.2"/>
    </filter>
  </defs>
  
  <!-- Background circle with multiple effects -->
  <circle cx="64" cy="64" r="60" fill="url(#grad1_128)" stroke="#ffffff" stroke-width="3" filter="url(#shadow_128)"/>
  <circle cx="64" cy="64" r="60" fill="url(#glow_128)"/>
  <circle cx="64" cy="64" r="45" fill="url(#innerGlow)"/>
  
  <!-- API symbol -->
  <g transform="translate(24, 32)">
    <!-- Left bracket with enhanced styling -->
    <path d="M8 8 L0 16 L0 48 L8 56" stroke="white" stroke-width="8" fill="none" stroke-linecap="round" stroke-linejoin="round" opacity="0.95"/>
    <path d="M6 10 L2 14 L2 50 L6 54" stroke="#87ceeb" stroke-width="2" fill="none" stroke-linecap="round" stroke-linejoin="round" opacity="0.6"/>
    
    <!-- Right bracket with enhanced styling -->
    <path d="M72 8 L80 16 L80 48 L72 56" stroke="white" stroke-width="8" fill="none" stroke-linecap="round" stroke-linejoin="round" opacity="0.95"/>
    <path d="M74 10 L78 14 L78 50 L74 54" stroke="#87ceeb" stroke-width="2" fill="none" stroke-linecap="round" stroke-linejoin="round" opacity="0.6"/>
    
    <!-- Center elements with enhanced gradients and effects -->
    <circle cx="24" cy="32" r="6" fill="url(#grad2_128)" stroke="white" stroke-width="1.5" filter="url(#innerShadow)"/>
    <circle cx="40" cy="32" r="6" fill="url(#grad2_128)" stroke="white" stroke-width="1.5" filter="url(#innerShadow)"/>
    <circle cx="56" cy="32" r="6" fill="url(#grad2_128)" stroke="white" stroke-width="1.5" filter="url(#innerShadow)"/>
    
    <!-- Highlight dots -->
    <circle cx="24" cy="28" r="2" fill="white" opacity="0.9"/>
    <circle cx="40" cy="28" r="2" fill="white" opacity="0.9"/>
    <circle cx="56" cy="28" r="2" fill="white" opacity="0.9"/>
    
    <!-- Connection lines with glow effect -->
    <line x1="30" y1="32" x2="34" y2="32" stroke="white" stroke-width="3" opacity="0.7"/>
    <line x1="46" y1="32" x2="50" y2="32" stroke="white" stroke-width="3" opacity="0.7"/>
    <line x1="30" y1="32" x2="34" y2="32" stroke="#87ceeb" stroke-width="1" opacity="0.9"/>
    <line x1="46" y1="32" x2="50" y2="32" stroke="#87ceeb" stroke-width="1" opacity="0.9"/>
    
    <!-- Additional decorative elements -->
    <circle cx="16" cy="20" r="1.5" fill="white" opacity="0.4"/>
    <circle cx="64" cy="20" r="1.5" fill="white" opacity="0.4"/>
    <circle cx="16" cy="44" r="1.5" fill="white" opacity="0.4"/>
    <circle cx="64" cy="44" r="1.5" fill="white" opacity="0.4"/>
    
    <!-- Subtle background pattern -->
    <rect x="12" y="16" width="56" height="32" rx="4" fill="none" stroke="white" stroke-width="0.5" opacity="0.2"/>
  </g>
</svg>