<svg width="48" height="48" viewBox="0 0 48 48" xmlns="http://www.w3.org/2000/svg">
  <defs>
    <linearGradient id="grad1_48" x1="0%" y1="0%" x2="100%" y2="100%">
      <stop offset="0%" style="stop-color:#0176d3;stop-opacity:1" />
      <stop offset="30%" style="stop-color:#0162b8;stop-opacity:1" />
      <stop offset="70%" style="stop-color:#0056b3;stop-opacity:1" />
      <stop offset="100%" style="stop-color:#003d82;stop-opacity:1" />
    </linearGradient>
    <linearGradient id="grad2_48" x1="0%" y1="0%" x2="100%" y2="100%">
      <stop offset="0%" style="stop-color:#ff6b35;stop-opacity:1" />
      <stop offset="50%" style="stop-color:#ff5722;stop-opacity:1" />
      <stop offset="100%" style="stop-color:#f7931e;stop-opacity:1" />
    </linearGradient>
    <radialGradient id="glow_48" cx="50%" cy="30%" r="70%">
      <stop offset="0%" style="stop-color:#ffffff;stop-opacity:0.4" />
      <stop offset="70%" style="stop-color:#ffffff;stop-opacity:0.1" />
      <stop offset="100%" style="stop-color:#ffffff;stop-opacity:0" />
    </radialGradient>
    <filter id="shadow" x="-50%" y="-50%" width="200%" height="200%">
      <feDropShadow dx="2" dy="2" stdDeviation="3" flood-color="#000000" flood-opacity="0.2"/>
    </filter>
  </defs>
  
  <!-- Background circle with shadow -->
  <circle cx="24" cy="24" r="22" fill="url(#grad1_48)" stroke="#ffffff" stroke-width="1.5" filter="url(#shadow)"/>
  <circle cx="24" cy="24" r="22" fill="url(#glow_48)"/>
  
  <!-- API symbol -->
  <g transform="translate(9, 12)">
    <!-- Left bracket -->
    <path d="M3 3 L0 6 L0 18 L3 21" stroke="white" stroke-width="3.5" fill="none" stroke-linecap="round" stroke-linejoin="round"/>
    
    <!-- Right bracket -->
    <path d="M27 3 L30 6 L30 18 L27 21" stroke="white" stroke-width="3.5" fill="none" stroke-linecap="round" stroke-linejoin="round"/>
    
    <!-- Center elements with gradient -->
    <circle cx="9" cy="12" r="2.5" fill="url(#grad2_48)" stroke="white" stroke-width="0.5"/>
    <circle cx="15" cy="12" r="2.5" fill="url(#grad2_48)" stroke="white" stroke-width="0.5"/>
    <circle cx="21" cy="12" r="2.5" fill="url(#grad2_48)" stroke="white" stroke-width="0.5"/>
    
    <!-- Highlight dots -->
    <circle cx="9" cy="10.5" r="0.8" fill="white" opacity="0.9"/>
    <circle cx="15" cy="10.5" r="0.8" fill="white" opacity="0.9"/>
    <circle cx="21" cy="10.5" r="0.8" fill="white" opacity="0.9"/>
    
    <!-- Connection lines -->
    <line x1="11.5" y1="12" x2="12.5" y2="12" stroke="white" stroke-width="1.5" opacity="0.6"/>
    <line x1="17.5" y1="12" x2="18.5" y2="12" stroke="white" stroke-width="1.5" opacity="0.6"/>
  </g>
</svg>